<?xml version="1.0" encoding="iso-8859-1"?>
<svg version="1.1" xmlns="http://www.w3.org/2000/svg" xmlns:xlink="http://www.w3.org/1999/xlink"
	width="612px"
	height="612px"
>

<defs>

<symbol id="search" viewBox="0 0 45.008 45.009">
<path d="M43.462,35.997l-11.401-11.37c1.197-2.352,1.845-4.962,1.845-7.676c0-4.528-1.765-8.785-4.966-11.986   C25.739,1.763,21.481,0,16.953,0C12.426,0,8.167,1.763,4.966,4.965C1.765,8.167,0,12.424,0,16.952   c0,4.528,1.764,8.785,4.966,11.986c3.201,3.202,7.459,4.965,11.986,4.965c2.714,0,5.325-0.646,7.675-1.842l11.371,11.402   c1.029,1.029,2.382,1.546,3.732,1.546c1.35,0,2.701-0.517,3.731-1.546C45.524,41.4,45.524,38.059,43.462,35.997z M9.444,24.459   c-2.005-2.006-3.109-4.671-3.109-7.507s1.104-5.502,3.11-7.508c2.005-2.005,4.671-3.11,7.507-3.11s5.502,1.104,7.508,3.11   c2.005,2.005,3.11,4.671,3.11,7.507s-1.105,5.502-3.11,7.508c-2.006,2.005-4.673,3.109-7.508,3.109   C14.117,27.568,11.451,26.465,9.444,24.459z" />
</symbol>


<symbol id="tw" viewBox="0 0 612 612">
<path d="M612,116.258c-22.525,9.981-46.694,16.75-72.088,19.772c25.929-15.527,45.777-40.155,55.184-69.411 c-24.322,14.379-51.169,24.82-79.775,30.48c-22.907-24.437-55.49-39.658-91.63-39.658c-69.334,0-125.551,56.217-125.551,125.513 c0,9.828,1.109,19.427,3.251,28.606C197.065,206.32,104.556,156.337,42.641,80.386c-10.823,18.51-16.98,40.078-16.98,63.101 c0,43.559,22.181,81.993,55.835,104.479c-20.575-0.688-39.926-6.348-56.867-15.756v1.568c0,60.806,43.291,111.554,100.693,123.104 c-10.517,2.83-21.607,4.398-33.08,4.398c-8.107,0-15.947-0.803-23.634-2.333c15.985,49.907,62.336,86.199,117.253,87.194 c-42.947,33.654-97.099,53.655-155.916,53.655c-10.134,0-20.116-0.612-29.944-1.721c55.567,35.681,121.536,56.485,192.438,56.485 c230.948,0,357.188-191.291,357.188-357.188l-0.421-16.253C573.872,163.526,595.211,141.422,612,116.258z"/>
</symbol>

<symbol id="fb" viewBox="0 0 96.124 96.123">
<path d="M72.089,0.02L59.624,0C45.62,0,36.57,9.285,36.57,23.656v10.907H24.037c-1.083,0-1.96,0.878-1.96,1.961v15.803 c0,1.083,0.878,1.96,1.96,1.96h12.533v39.876c0,1.083,0.877,1.96,1.96,1.96h16.352c1.083,0,1.96-0.878,1.96-1.96V54.287h14.654 c1.083,0,1.96-0.877,1.96-1.96l0.006-15.803c0-0.52-0.207-1.018-0.574-1.386c-0.367-0.368-0.867-0.575-1.387-0.575H56.842v-9.246 c0-4.444,1.059-6.7,6.848-6.7l8.397-0.003c1.082,0,1.959-0.878,1.959-1.96V1.98C74.046,0.899,73.17,0.022,72.089,0.02z"/>
</symbol>

<symbol id="vk" viewBox="0 0 532.3 532.3">
<path d="M472,241.3c7.6-9.8,13.6-17.6,18-23.6,32-42.5,45.8-69.6,41.6-81.5l-1.7-2.8c-1.1-1.7-4-3.2-8.6-4.6,-4.6-1.4-10.5-1.6-17.7-0.7l-79.8,0.6c-1.8-0.2-3.7-0.1-5.5,0.1,-1.8,0.3-3,0.6-3.6,0.8,-0.6,0.3-1,0.5-1.4,0.7l-1.1,0.8c-0.9,0.6-1.9,1.5-3,2.9,-1.1,1.4-2,3-2.8,4.9,-8.7,22.4-18.6,43.1-29.7,62.4,-6.8,11.5-13.1,21.4-18.8,29.8,-5.7,8.4-10.5,14.6-14.4,18.6,-3.9,4-7.4,7.2-10.5,9.6,-3.1,2.4-5.5,3.4-7.2,3.1,-1.7-0.4-3.2-0.7-4.7-1.1,-2.6-1.7-4.7-3.9-6.2-6.8,-1.6-2.9-2.6-6.5-3.2-10.8,-0.6-4.3-0.9-8.1-1-11.2,-0.1-3.1,0-7.6,0.1-13.3,0.2-5.7,0.3-9.6,0.3-11.6,0-7,0.1-14.6,0.4-22.9,0.3-8.2,0.5-14.7,0.7-19.5,0.2-4.8,0.3-9.9,0.3-15.2,0-5.3-0.3-9.6-1-12.6,-0.6-3-1.6-6-2.9-8.9,-1.3-2.9-3.2-5.1-5.7-6.6,-2.5-1.6-5.6-2.8-9.3-3.7,-9.8-2.2-22.3-3.4-37.4-3.6,-34.4-0.4-56.5,1.9-66.2,6.7,-3.9,2-7.4,4.8-10.5,8.3,-3.3,4.1-3.8,6.3-1.4,6.6,11.1,1.7,18.9,5.6,23.6,11.9l1.7,3.3c1.3,2.4,2.6,6.7,3.9,12.8,1.3,6.1,2.1,12.8,2.5,20.2,0.9,13.5,0.9,25,0,34.6,-0.9,9.6-1.8,17.1-2.6,22.4,-0.8,5.4-2.1,9.7-3.7,13,-1.7,3.3-2.8,5.4-3.3,6.1,-0.6,0.7-1,1.2-1.4,1.4,-2.4,0.9-4.9,1.4-7.5,1.4,-2.6,0-5.7-1.3-9.4-3.9,-3.7-2.6-7.5-6.1-11.5-10.7,-4-4.5-8.5-10.9-13.4-19,-5-8.1-10.2-17.7-15.5-28.8l-4.4-8c-2.8-5.2-6.6-12.7-11.4-22.6s-9.1-19.4-12.7-28.7c-1.5-3.9-3.7-6.8-6.7-8.9l-1.4-0.8c-0.9-0.7-2.4-1.5-4.4-2.4,-2-0.8-4.2-1.4-6.4-1.8l-75.9,0.6c-7.8,0-13,1.8-15.8,5.3l-1.1,1.7C0.3,136.1,0,137.5,0,139.6c0,2,0.6,4.5,1.7,7.5,11.1,26.1,23.1,51.2,36.2,75.4,13,24.2,24.3,43.7,34,58.5,9.6,14.8,19.4,28.7,29.4,41.9,10,13.1,16.6,21.5,19.8,25.2,3.2,3.7,5.8,6.5,7.6,8.3l6.9,6.7c4.4,4.4,10.9,9.7,19.5,15.9,8.6,6.2,18.1,12.3,28.6,18.3,10.4,6,22.6,10.9,36.4,14.7,13.9,3.8,27.3,5.3,40.5,4.6h31.9c6.5-0.6,11.4-2.6,14.7-6.1l1.1-1.4c0.7-1.1,1.4-2.8,2.1-5.1,0.6-2.3,1-4.9,1-7.6,-0.2-7.9,0.4-15.1,1.8-21.5,1.4-6.4,3-11.2,4.7-14.4,1.8-3.2,3.7-6,6-8.2,2.2-2.2,3.8-3.5,4.7-4,0.9-0.5,1.7-0.8,2.2-1,4.4-1.5,9.7,0,15.7,4.3,6,4.4,11.6,9.7,16.9,16.1,5.3,6.4,11.6,13.5,19,21.5,7.4,7.9,13.9,13.9,19.4,17.7l5.5,3.3c3.7,2.2,8.5,4.2,14.4,6.1,5.9,1.8,11.1,2.3,15.5,1.4l71-1.1c7,0,12.5-1.1,16.4-3.5,3.9-2.3,6.2-4.9,6.9-7.6,0.7-2.8,0.8-5.9,0.1-9.4,-0.6-3.5-1.3-6-1.9-7.3,-0.6-1.4-1.2-2.5-1.8-3.5,-9.2-16.6-26.9-37.1-52.9-61.3l-0.6-0.6,-0.3-0.3,-0.3-0.3H473.4c-11.8-11.3-19.3-18.8-22.4-22.7,-5.7-7.4-7-14.9-3.9-22.4C449.3,271.9,457.6,259.8,472,241.3z"/>
</symbol>

<symbol id="ok" viewBox="0 0 95.481 95.481">
<path d="M43.041,67.254c-7.402-0.772-14.076-2.595-19.79-7.064c-0.709-0.556-1.441-1.092-2.088-1.713 c-2.501-2.402-2.753-5.153-0.774-7.988c1.693-2.426,4.535-3.075,7.489-1.682c0.572,0.27,1.117,0.607,1.639,0.969 c10.649,7.317,25.278,7.519,35.967,0.329c1.059-0.812,2.191-1.474,3.503-1.812c2.551-0.655,4.93,0.282,6.299,2.514 c1.564,2.549,1.544,5.037-0.383,7.016c-2.956,3.034-6.511,5.229-10.461,6.761c-3.735,1.448-7.826,2.177-11.875,2.661 c0.611,0.665,0.899,0.992,1.281,1.376c5.498,5.524,11.02,11.025,16.5,16.566c1.867,1.888,2.257,4.229,1.229,6.425 c-1.124,2.4-3.64,3.979-6.107,3.81c-1.563-0.108-2.782-0.886-3.865-1.977c-4.149-4.175-8.376-8.273-12.441-12.527 c-1.183-1.237-1.752-1.003-2.796,0.071c-4.174,4.297-8.416,8.528-12.683,12.735c-1.916,1.889-4.196,2.229-6.418,1.15 c-2.362-1.145-3.865-3.556-3.749-5.979c0.08-1.639,0.886-2.891,2.011-4.014c5.441-5.433,10.867-10.88,16.295-16.322 C42.183,68.197,42.518,67.813,43.041,67.254z"/>
<path d="M47.55,48.329c-13.205-0.045-24.033-10.992-23.956-24.218C23.67,10.739,34.505-0.037,47.84,0 c13.362,0.036,24.087,10.967,24.02,24.478C71.792,37.677,60.889,48.375,47.55,48.329z M59.551,24.143 c-0.023-6.567-5.253-11.795-11.807-11.801c-6.609-0.007-11.886,5.316-11.835,11.943c0.049,6.542,5.324,11.733,11.896,11.709 C54.357,35.971,59.573,30.709,59.551,24.143z"/>
</symbol>

<symbol id="yt" viewBox="0 0 90 90">
<path d="M90,26.958C90,19.525,83.979,13.5,76.55,13.5h-63.1C6.021,13.5,0,19.525,0,26.958v36.084 C0,70.475,6.021,76.5,13.45,76.5h63.1C83.979,76.5,90,70.475,90,63.042V26.958z M36,60.225V26.33l25.702,16.947L36,60.225z"/>
</symbol>

<symbol id="gp" viewBox="0 0 491.858 491.858">
<path d="M377.472,224.957H201.319v58.718H308.79c-16.032,51.048-63.714,88.077-120.055,88.077 c-69.492,0-125.823-56.335-125.823-125.824c0-69.492,56.333-125.823,125.823-125.823c34.994,0,66.645,14.289,89.452,37.346 l42.622-46.328c-34.04-33.355-80.65-53.929-132.074-53.929C84.5,57.193,0,141.693,0,245.928s84.5,188.737,188.736,188.737 c91.307,0,171.248-64.844,188.737-150.989v-58.718L377.472,224.957L377.472,224.957z"/>
<polygon points="491.858,224.857 455.827,224.857 455.827,188.826 424.941,188.826 424.941,224.857 388.91,224.857 388.91,255.74 424.941,255.74 424.941,291.772 455.827,291.772 455.827,255.74 491.858,255.74 			"/>
</symbol>

<symbol id="pt" viewBox="0 0 486.392 486.392">
	<path d="M430.149,135.248C416.865,39.125,321.076-9.818,218.873,1.642     C138.071,10.701,57.512,76.03,54.168,169.447c-2.037,57.029,14.136,99.801,68.399,111.84     c23.499-41.586-7.569-50.676-12.433-80.802C90.222,77.367,252.16-6.718,336.975,79.313c58.732,59.583,20.033,242.77-74.57,223.71     c-90.621-18.179,44.383-164.005-27.937-192.611c-58.793-23.286-90.013,71.135-62.137,118.072     c-16.355,80.711-51.557,156.709-37.3,257.909c46.207-33.561,61.802-97.734,74.57-164.704     c23.225,14.136,35.659,28.758,65.268,31.038C384.064,361.207,445.136,243.713,430.149,135.248z" />
</symbol>

<symbol id="insta" viewBox="0 0 510 510">
	<path d="M459,0H51C22.95,0,0,22.95,0,51v408c0,28.05,22.95,51,51,51h408c28.05,0,51-22.95,51-51V51C510,22.95,487.05,0,459,0z  M255,153c56.1,0,102,45.9,102,102c0,56.1-45.9,102-102,102c-56.1,0-102-45.9-102-102C153,198.9,198.9,153,255,153z M63.75,459 C56.1,459,51,453.9,51,446.25V229.5h53.55C102,237.15,102,247.35,102,255c0,84.15,68.85,153,153,153c84.15,0,153-68.85,153-153 c0-7.65,0-17.85-2.55-25.5H459v216.75c0,7.65-5.1,12.75-12.75,12.75H63.75z M459,114.75c0,7.65-5.1,12.75-12.75,12.75h-51 c-7.65,0-12.75-5.1-12.75-12.75v-51c0-7.65,5.1-12.75,12.75-12.75h51C453.9,51,459,56.1,459,63.75V114.75z"/>
</symbol>

<symbol id="rss" viewBox="0 0 402.041 402.04">
	<path d="M54.816,292.382c-15.229,0-28.169,5.331-38.831,15.988C5.33,319.026,0,331.969,0,347.197    c0,15.232,5.325,28.172,15.985,38.828c10.662,10.657,23.606,15.988,38.831,15.988c15.227,0,28.168-5.331,38.828-15.988    c10.656-10.656,15.986-23.596,15.986-38.828c0-15.229-5.33-28.171-15.986-38.827C82.987,297.713,70.046,292.382,54.816,292.382z" />
	<path d="M181.01,221.002c-21.51-21.698-46.158-38.97-73.948-51.816c-27.79-12.85-56.914-20.511-87.366-22.985h-1.425    c-4.949,0-9.042,1.619-12.275,4.854C1.997,154.477,0,158.953,0,164.472v38.543c0,4.757,1.569,8.85,4.708,12.279    c3.14,3.429,7.089,5.332,11.848,5.708c43.586,4.189,80.845,21.752,111.773,52.678c30.93,30.926,48.49,68.187,52.677,111.771    c0.382,4.764,2.284,8.712,5.712,11.847c3.427,3.148,7.517,4.72,12.275,4.72h38.545c5.517,0,9.989-1.995,13.415-5.996    c3.621-3.812,5.236-8.381,4.863-13.709c-2.478-30.447-10.14-59.573-22.987-87.361C219.983,267.16,202.708,242.514,181.01,221.002z    " />
	<path d="M367.728,239.701c-20.365-45.585-48.345-86.078-83.936-121.482c-35.405-35.594-75.896-63.572-121.485-83.939    C116.723,13.917,68.996,2.494,19.126,0.02h-0.855c-4.949,0-9.136,1.713-12.563,5.14C1.903,8.583,0,12.964,0,18.294v40.825    c0,4.76,1.667,8.897,4.996,12.419c3.33,3.523,7.373,5.376,12.132,5.57c40.924,2.478,79.799,12.188,116.63,29.127    c36.83,16.94,68.806,38.972,95.93,66.09c27.118,27.123,49.149,59.101,66.089,95.931c16.94,36.836,26.557,75.705,28.839,116.627    c0.195,4.764,2.046,8.809,5.564,12.139c3.524,3.329,7.762,4.999,12.71,4.999h40.823c5.331,0,9.701-1.902,13.134-5.715    c3.809-3.806,5.517-8.274,5.144-13.415C399.52,333.017,388.093,285.291,367.728,239.701z" />
</symbol>


</defs>

</svg>
