<?xml version="1.0" encoding="iso-8859-1"?>
<svg version="1.1" xmlns="http://www.w3.org/2000/svg" xmlns:xlink="http://www.w3.org/1999/xlink"
	width="500px" 
	height="300px"
>

<defs>
	
	<symbol id="page">
				<path d="M87.5,0h-75C9.05,0,6.25,2.8,6.25,6.25v87.5c0,3.449,2.8,6.25,6.25,6.25h75
					c3.449,0,6.25-2.801,6.25-6.25V6.25C93.75,2.8,90.95,0,87.5,0z M87.5,93.75h-75V6.25h75V93.75z"/>
				<path d="M46.875,25h25C73.594,25,75,23.6,75,21.875s-1.406-3.125-3.125-3.125h-25
					c-1.725,0-3.125,1.4-3.125,3.125S45.15,25,46.875,25z"/>
				<path d="M28.125,43.75h43.75c1.719,0,3.125-1.4,3.125-3.125S73.594,37.5,71.875,37.5h-43.75
					C26.4,37.5,25,38.9,25,40.625S26.4,43.75,28.125,43.75z"/>
				<path d="M28.125,62.5h43.75c1.719,0,3.125-1.406,3.125-3.125s-1.406-3.125-3.125-3.125h-43.75
					C26.4,56.25,25,57.656,25,59.375S26.4,62.5,28.125,62.5z"/>
				<path d="M28.125,81.25h43.75c1.719,0,3.125-1.406,3.125-3.125S73.594,75,71.875,75h-43.75
					C26.4,75,25,76.406,25,78.125S26.4,81.25,28.125,81.25z"/>
	</symbol>

	<symbol id="arrow">
			<path d="M68.949,46.454L54.82,32.326c-1.952-1.953-5.119-1.953-7.07,0h0.002
				c-1.951,1.95-1.951,5.116,0,7.068L53.354,45H32.502c-2.759,0-4.999,2.238-4.999,4.999v0.002c0,2.761,2.24,5,4.999,5h20.854
				l-5.604,5.604c-1.951,1.953-1.951,5.117,0,7.069c1.949,1.952,5.116,1.952,7.068,0l14.141-14.139c1.951-1.95,1.951-5.119,0-7.071
				C68.958,46.459,68.952,46.456,68.949,46.454z M74.996,6.705C51.084-7.097,20.51,1.094,6.707,25.002
				C-7.098,48.913,1.092,79.487,25.003,93.294c23.908,13.805,54.485,5.611,68.291-18.298C107.101,51.086,98.903,20.508,74.996,6.705
				z M84.633,69.996C73.588,89.125,49.129,95.679,30.002,84.634C10.876,73.59,4.319,49.132,15.363,30.003
				c11.043-19.128,35.504-25.682,54.631-14.64C89.122,26.407,95.676,50.87,84.633,69.996z"/>

	</symbol>

	<symbol id="clock">
		<path d="M50,0C22.43,0,0,22.431,0,50s22.43,50,50,50c27.57,0,50-22.43,50-50S77.57,0,50,0z M50,89.361
			c-21.703,0-39.362-17.656-39.362-39.361C10.638,28.296,28.297,10.64,50,10.64S89.362,28.296,89.362,50
			C89.362,71.705,71.703,89.361,50,89.361z"/>
		<path d="M76.059,48.457H53.588V21.439c0-2.273-1.843-4.117-4.117-4.117c-2.273,0-4.117,1.844-4.117,4.117
			v31.135c0,2.273,1.843,4.117,4.117,4.117h26.588c2.273,0,4.117-1.844,4.117-4.117C80.176,50.3,78.332,48.457,76.059,48.457z"/>
	</symbol>


	<symbol id="comment">
		<path d="M0,91.457V42.528c0-15.132,12.313-27.446,27.445-27.446h45.103C87.684,15.082,100,27.396,100,42.528v8.439
			c0,15.132-12.313,27.445-27.445,27.445H28.082L0,91.457z M27.445,21.201c-11.76,0-21.326,9.567-21.326,21.327v39.339l20.614-9.576
			h45.821c11.76,0,21.326-9.568,21.326-21.327v-8.439c0-11.76-9.57-21.327-21.333-21.327H27.445V21.201z M29.463,42.063
			c3.215,0,5.818,2.604,5.818,5.819S32.678,53.7,29.463,53.7s-5.818-2.604-5.818-5.819S26.248,42.063,29.463,42.063z M70.534,42.063
			c3.214,0,5.818,2.604,5.818,5.819S73.748,53.7,70.534,53.7c-3.215,0-5.819-2.604-5.819-5.819S67.319,42.063,70.534,42.063z
			 M49.995,42.063c3.214,0,5.818,2.604,5.818,5.819S53.209,53.7,49.995,53.7s-5.819-2.604-5.819-5.819S46.781,42.063,49.995,42.063z"
			/>
	</symbol>

	<symbol id="views">
		<path d="M44.407,47.685c-3.084,3.085-3.084,8.086,0,11.17c3.085,3.084,8.086,3.084,11.171,0
			c3.084-3.084,3.084-8.085,0-11.17C52.493,44.601,47.492,44.6,44.407,47.685z M55.363,53.055c-0.642,0.641-2.314,0.006-3.737-1.418
			c-1.425-1.422-2.059-3.097-1.419-3.737c0.642-0.641,2.314-0.006,3.737,1.417C55.369,50.741,56.003,52.414,55.363,53.055z"/>
		<path d="M99.971,56.768c-0.506-0.727-1.001-1.461-1.502-2.191c-2.275-3.32-4.934-6.366-7.824-9.164
			c-3.695-3.579-7.743-6.798-12.114-9.515c-4.399-2.735-9.102-4.973-14.047-6.527c-4.089-1.285-8.329-2.055-12.609-2.244
			c-3.979-0.176-7.972,0.22-11.861,1.059c-5.077,1.096-9.988,2.995-14.566,5.437C20.894,36.048,16.63,39,12.715,42.358
			c-1.94,1.665-3.796,3.432-5.55,5.291c-1.66,1.761-3.26,3.603-4.678,5.566c-0.51,0.705-0.998,1.422-1.49,2.137
			c-0.321,0.467-0.647,0.93-0.962,1.4c-0.063,0.092-0.042,0.1,0.069,0.189c0.228,0.184,0.456,0.365,0.684,0.549
			c0.813,0.656,1.594,1.35,2.405,2.006c2.037,1.65,4.158,3.195,6.335,4.654c4.324,2.898,8.886,5.453,13.651,7.551
			c0.967,0.428,1.946,0.816,2.926,1.215c-2.19-1.389-4.34-2.826-6.404-4.398c-2.088-1.59-4.103-3.273-6.041-5.041
			c-2.297-2.094-4.494-4.303-6.556-6.629c3.906-2.543,7.886-4.971,11.987-7.188c3.979-2.152,8.07-4.06,12.288-5.695
			c0.849-0.328,1.705-0.64,2.57-0.934c-1.896,2.958-2.995,6.473-2.995,10.241c0,10.496,8.541,19.037,19.038,19.037
			S69.03,63.768,69.03,53.271c0-3.748-1.089-7.245-2.965-10.194c1.098,0.371,2.186,0.769,3.265,1.188
			c4.902,1.909,9.612,4.282,14.187,6.875c3.177,1.801,6.283,3.725,9.347,5.713c-3.449,3.893-7.265,7.479-11.347,10.703
			c-2.447,1.934-5.005,3.689-7.637,5.359c2.399-0.975,4.766-2.002,7.076-3.176c2.333-1.188,4.612-2.477,6.835-3.859
			c3.633-2.262,7.181-4.74,10.413-7.553c0.369-0.32,0.747-0.627,1.129-0.932c0.192-0.156,0.385-0.311,0.577-0.465
			C100.006,56.855,100.023,56.844,99.971,56.768z M49.992,66.232c-7.146,0-12.962-5.814-12.962-12.963
			c0-7.147,5.815-12.961,12.962-12.961c7.147,0,12.962,5.815,12.962,12.961C62.954,60.418,57.14,66.232,49.992,66.232z"/>
	</symbol>

	<symbol id="prevnext">
		<path style="fill-rule:evenodd;clip-rule:evenodd;" d="M47.5,60l-9.831-10L86.83,0l9.835,10L57.337,49.997L96.667,90l-9.831,10
			l-39.33-40.003L47.5,60z M23.002,49.997L62.332,90L52.5,100L13.167,59.997L13.165,60L3.333,50L52.495,0l9.83,10L23.002,49.997z"/>
	</symbol>

	<symbol id="right_arrow">
		<path d="M24.43,74.088c4.703-11.422,12.567-21.094,22.75-27.974c4.656-3.15,9.672-5.641,14.919-7.425
			v16.612L100,28.727L62.099,2.143v16.021c-9.197,2.328-17.978,6.255-25.946,11.641C22.75,38.863,12.407,51.582,6.221,66.594
			C2.097,76.59,0.012,87.107,0,97.846l19.691,0.012C19.704,89.703,21.291,81.699,24.43,74.088z"/>
	</symbol>

	<symbol id="web">
		<path d="M99.88,46.666C98.241,21.707,78.293,1.754,53.334,0.113V0H50h-3.334v0.113
			C21.708,1.754,1.754,21.707,0.114,46.666H0V50v3.334h0.113C1.754,78.293,21.708,98.24,46.667,99.88V100H50h3.334v-0.12
			c24.959-1.64,44.906-21.587,46.546-46.546H100V50v-3.334H99.88z M31.3,10.9c-3.22,4.279-5.894,9.646-7.84,15.766h-9.987
			C17.821,19.887,23.994,14.4,31.3,10.9z M9.987,33.334h11.721c-0.894,4.213-1.461,8.686-1.641,13.332H6.793
			C7.147,41.973,8.254,37.486,9.987,33.334z M6.793,53.334h13.273c0.18,4.646,0.747,9.119,1.641,13.332H9.987
			C8.254,62.514,7.147,58.027,6.793,53.334z M13.473,73.334h9.98c1.947,6.119,4.62,11.486,7.847,15.766
			C23.994,85.6,17.821,80.12,13.473,73.334z M46.667,92.906c-6.853-1.833-12.753-9.193-16.332-19.572h16.332V92.906z M46.667,66.666
			H28.46c-0.94-4.152-1.533-8.639-1.727-13.332h19.933V66.666z M46.667,46.666H26.734c0.193-4.693,0.786-9.18,1.727-13.332h18.206
			V46.666z M46.667,26.666H30.334C33.914,16.287,39.814,8.927,46.667,7.1V26.666z M86.528,26.666h-9.975
			C74.6,20.547,71.934,15.18,68.701,10.9C76,14.4,82.18,19.887,86.528,26.666z M53.334,7.1c6.846,1.827,12.752,9.188,16.332,19.566
			H53.334V7.1z M53.334,33.334h18.199c0.947,4.152,1.527,8.639,1.733,13.332H53.334V33.334z M53.334,53.334h19.933
			c-0.193,4.693-0.786,9.18-1.733,13.332H53.334V53.334z M53.334,92.906V73.334h16.332C66.086,83.713,60.18,91.073,53.334,92.906z
			 M68.701,89.1c3.22-4.286,5.899-9.646,7.853-15.766h9.975C82.18,80.12,76,85.6,68.701,89.1z M90.014,66.666H78.293
			c0.894-4.213,1.461-8.686,1.641-13.332h13.267C92.854,58.027,91.747,62.514,90.014,66.666z M79.934,46.666
			c-0.18-4.646-0.747-9.119-1.641-13.332h11.721c1.732,4.152,2.84,8.639,3.193,13.332H79.934z"/>
	</symbol>

	<symbol id="man">
		<path d="M50,48.906c11.118,0,20.133-10.947,20.133-24.453C70.133,10.948,67.173,0,50,0
			S29.867,10.948,29.867,24.453C29.867,37.959,38.881,48.906,50,48.906z"/>
		<path d="M11.975,86.244C11.971,85.42,11.967,86.012,11.975,86.244L11.975,86.244z"/>
		<path d="M88.024,86.887C88.035,86.662,88.027,85.322,88.024,86.887L88.024,86.887z"/>
		<path d="M87.981,85.256c-0.373-23.525-3.445-30.229-26.958-34.473c0,0-3.31,4.217-11.023,4.217
			c-7.715,0-11.025-4.217-11.025-4.217C15.719,54.98,12.46,61.584,12.031,84.492c-0.035,1.871-0.051,1.969-0.058,1.752
			c0.001,0.406,0.003,1.159,0.003,2.471c0,0,5.598,11.285,38.023,11.285c32.424,0,38.022-11.285,38.022-11.285
			c0-0.843,0.001-1.429,0.001-1.828C88.018,87.021,88.006,86.762,87.981,85.256z"/>
	</symbol>

	<symbol id="email">
		<path d="M1.38,77.601c-0.071,0.142-0.247,0.212-0.53,0.212H0.531C0.177,77.601,0,77.354,0,77.07V34.713
			c0-0.354,0.142-0.602,0.425-0.742c0.282-0.071,0.565-0.071,0.849,0l28.238,16.135c0.283,0.142,0.425,0.354,0.425,0.638
			c0,0.354-0.106,0.565-0.319,0.637L1.38,77.601z M96.285,89.277c0.212,0.283,0.283,0.566,0.212,0.85
			c-0.212,0.354-0.495,0.531-0.849,0.531H3.291c-0.496,0-1.026-0.177-1.592-0.531c-0.283-0.141-0.426-0.354-0.426-0.637
			s0.106-0.496,0.318-0.637L37.58,55.414c0.283-0.283,0.602-0.318,0.955-0.106l9.555,5.415c1.344,0.777,2.724,0.777,4.139,0
			l10.828-6.371c0.426-0.283,0.744-0.247,0.957,0.106L96.285,89.277z M99.576,33.333c0.282,0.142,0.424,0.39,0.424,0.743v44.799
			c0,0.354-0.178,0.602-0.531,0.742c-0.07,0.071-0.177,0.106-0.318,0.106c-0.213,0-0.424-0.106-0.637-0.318L71.656,50.424
			c-0.213-0.213-0.283-0.424-0.213-0.637c0-0.283,0.105-0.495,0.318-0.637l26.965-15.817C98.938,33.121,99.222,33.121,99.576,33.333
			z M96.604,9.342c0.99,0,1.805,0.318,2.441,0.955S100,11.713,100,12.633v10.191c0,0.494-0.248,0.742-0.743,0.742
			c-0.425,0.071-0.813,0.248-1.167,0.531L50.531,52.017c-0.071,0.071-0.213,0.106-0.426,0.106c-0.211,0-0.354-0.035-0.424-0.106
			L0.637,24.098C0.213,23.814,0,23.531,0,23.248V12.633c0-0.92,0.318-1.699,0.955-2.336s1.416-0.955,2.336-0.955H96.604
			L96.604,9.342z"/>
	</symbol>

	<symbol id="more">
		<polygon points="8.571,15.047 75.563,15.047 75.563,43.147 84.135,43.147 84.135,6.476 0,6.476 0,79.818 42.067,79.818 42.067,71.247 8.571,71.247 	"/>
		<polygon points="100,69.087 84.135,69.087 84.135,53.222 75.563,53.222 75.563,69.087 59.699,69.087 59.699,77.659 75.563,77.659 75.563,93.524 84.135,93.524 84.135,77.659 100,77.659 	"/>
		<rect x="20.477" y="28.066" width="36.464" height="8.572"/>
		<rect x="20.477" y="45.337" width="27.827" height="8.571"/>
	</symbol>

	<symbol id="quotes">
		<path d="M45.768,35.417c0-9.132-2.634-16.601-7.896-22.402C32.605,7.213,26.534,4.313,19.66,4.313
			c-4.729,0-8.891,1.989-12.489,5.962c-3.601,3.977-5.398,8.703-5.398,14.183c0,4.942,1.692,9.162,5.076,12.651
			c3.385,3.493,7.494,5.238,12.328,5.238c1.612,0,3.76-0.324,6.446-0.969l1.611-0.322c1.29,0,2.229,0.459,2.82,1.37
			c0.589,0.914,0.887,2.283,0.887,4.109c0,5.373-2.498,11.793-7.494,19.259C18.452,73.263,10.636,80.808,0,88.436l5.157,7.252
			C32.23,77.854,45.768,57.763,45.768,35.417L45.768,35.417z M100,35.417c0-9.132-2.632-16.601-7.894-22.402
			c-5.269-5.802-11.34-8.702-18.214-8.702c-4.729,0-8.89,1.998-12.488,5.988c-3.601,3.994-5.397,8.741-5.397,14.242
			c0,5.072,1.691,9.334,5.075,12.785c3.385,3.452,7.437,5.178,12.166,5.178c1.717,0,3.867-0.322,6.446-0.967l1.611-0.321
			c1.289,0,2.256,0.456,2.9,1.367c0.646,0.911,0.968,2.333,0.968,4.261c0,5.247-2.497,11.594-7.492,19.036
			c-4.996,7.445-12.813,14.973-23.45,22.577l5.157,7.229C86.463,77.96,100,57.871,100,35.417L100,35.417z"/>
	</symbol>	

</defs>


<use x="0" y="0" style="fill:#b7b7b7;" xlink:href="#page" />
<use x="100px" y="0" style="fill:#b7b7b7;" xlink:href="#arrow" />
<use x="200px" y="0" style="fill:#b7b7b7;" xlink:href="#clock" />
<use x="300px" y="0" style="fill:#434343;" xlink:href="#views" />

<use x="400px" y="0" style="fill:#b7b7b7;" xlink:href="#comment" />
<use x="400px" y="100px" style="fill:#434343;" xlink:href="#comment" />


<use x="0" y="100px" style="fill:#434343;" xlink:href="#prevnext" />
<use x="100px" y="100px" style="fill:#f1f1f1;" xlink:href="#prevnext" />
<use x="200px" y="100px" style="fill:#f1f1f1;" xlink:href="#quotes" />
<use x="300px" y="100px" style="fill:#b7b7b7;" xlink:href="#more" />


<use x="0" y="200px" style="fill:#f1f1f1;" xlink:href="#right_arrow" />
<use x="100px" y="200px" style="fill:#f1f1f1;fill-opacity:0.8" xlink:href="#right_arrow" />
<use x="200px" y="200px" style="fill:#b2b2b2;" xlink:href="#web" />
<use x="300px" y="200px" style="fill:#b2b2b2;" xlink:href="#man" />
<use x="400px" y="200px" style="fill:#b2b2b2;" xlink:href="#email" />

</svg>
